G04 #@! TF.GenerationSoftware,KiCad,Pcbnew,5.0.1*
G04 #@! TF.CreationDate,2019-03-16T14:53:00+03:00*
G04 #@! TF.ProjectId,smartpoi,736D617274706F692E6B696361645F70,rev?*
G04 #@! TF.SameCoordinates,Original*
G04 #@! TF.FileFunction,Soldermask,Top*
G04 #@! TF.FilePolarity,Negative*
%FSLAX46Y46*%
G04 Gerber Fmt 4.6, Leading zero omitted, Abs format (unit mm)*
G04 Created by KiCad (PCBNEW 5.0.1) date Сб 16 мар 2019 14:53:00*
%MOMM*%
%LPD*%
G01*
G04 APERTURE LIST*
%ADD10C,0.100000*%
G04 APERTURE END LIST*
D10*
G36*
X112538604Y-94328347D02*
X112575145Y-94339432D01*
X112608820Y-94357431D01*
X112638341Y-94381659D01*
X112662569Y-94411180D01*
X112680568Y-94444855D01*
X112691653Y-94481396D01*
X112696000Y-94525538D01*
X112696000Y-95974462D01*
X112691653Y-96018604D01*
X112680568Y-96055145D01*
X112662569Y-96088820D01*
X112638341Y-96118341D01*
X112608820Y-96142569D01*
X112575145Y-96160568D01*
X112538604Y-96171653D01*
X112494462Y-96176000D01*
X111545538Y-96176000D01*
X111501396Y-96171653D01*
X111464855Y-96160568D01*
X111431180Y-96142569D01*
X111401659Y-96118341D01*
X111377431Y-96088820D01*
X111359432Y-96055145D01*
X111348347Y-96018604D01*
X111344000Y-95974462D01*
X111344000Y-94525538D01*
X111348347Y-94481396D01*
X111359432Y-94444855D01*
X111377431Y-94411180D01*
X111401659Y-94381659D01*
X111431180Y-94357431D01*
X111464855Y-94339432D01*
X111501396Y-94328347D01*
X111545538Y-94324000D01*
X112494462Y-94324000D01*
X112538604Y-94328347D01*
X112538604Y-94328347D01*
G37*
G36*
X109738604Y-94328347D02*
X109775145Y-94339432D01*
X109808820Y-94357431D01*
X109838341Y-94381659D01*
X109862569Y-94411180D01*
X109880568Y-94444855D01*
X109891653Y-94481396D01*
X109896000Y-94525538D01*
X109896000Y-95974462D01*
X109891653Y-96018604D01*
X109880568Y-96055145D01*
X109862569Y-96088820D01*
X109838341Y-96118341D01*
X109808820Y-96142569D01*
X109775145Y-96160568D01*
X109738604Y-96171653D01*
X109694462Y-96176000D01*
X108745538Y-96176000D01*
X108701396Y-96171653D01*
X108664855Y-96160568D01*
X108631180Y-96142569D01*
X108601659Y-96118341D01*
X108577431Y-96088820D01*
X108559432Y-96055145D01*
X108548347Y-96018604D01*
X108544000Y-95974462D01*
X108544000Y-94525538D01*
X108548347Y-94481396D01*
X108559432Y-94444855D01*
X108577431Y-94411180D01*
X108601659Y-94381659D01*
X108631180Y-94357431D01*
X108664855Y-94339432D01*
X108701396Y-94328347D01*
X108745538Y-94324000D01*
X109694462Y-94324000D01*
X109738604Y-94328347D01*
X109738604Y-94328347D01*
G37*
G36*
X132981000Y-96151000D02*
X131179000Y-96151000D01*
X131179000Y-94349000D01*
X132981000Y-94349000D01*
X132981000Y-96151000D01*
X132981000Y-96151000D01*
G37*
G36*
X127771000Y-94111000D02*
X126769000Y-94111000D01*
X126769000Y-93209000D01*
X127771000Y-93209000D01*
X127771000Y-94111000D01*
X127771000Y-94111000D01*
G37*
G36*
X122506000Y-94001000D02*
X116254000Y-94001000D01*
X116254000Y-92299000D01*
X122506000Y-92299000D01*
X122506000Y-94001000D01*
X122506000Y-94001000D01*
G37*
G36*
X129771000Y-93161000D02*
X128769000Y-93161000D01*
X128769000Y-92259000D01*
X129771000Y-92259000D01*
X129771000Y-93161000D01*
X129771000Y-93161000D01*
G37*
G36*
X112661000Y-92976000D02*
X110859000Y-92976000D01*
X110859000Y-91174000D01*
X112661000Y-91174000D01*
X112661000Y-92976000D01*
X112661000Y-92976000D01*
G37*
G36*
X109330442Y-91180518D02*
X109396627Y-91187037D01*
X109509853Y-91221384D01*
X109566467Y-91238557D01*
X109698255Y-91309000D01*
X109722991Y-91322222D01*
X109758729Y-91351552D01*
X109860186Y-91434814D01*
X109943448Y-91536271D01*
X109972778Y-91572009D01*
X109972779Y-91572011D01*
X110056443Y-91728533D01*
X110056443Y-91728534D01*
X110107963Y-91898373D01*
X110125359Y-92075000D01*
X110107963Y-92251627D01*
X110080852Y-92341000D01*
X110056443Y-92421467D01*
X109982348Y-92560087D01*
X109972778Y-92577991D01*
X109943448Y-92613729D01*
X109860186Y-92715186D01*
X109758729Y-92798448D01*
X109722991Y-92827778D01*
X109722989Y-92827779D01*
X109566467Y-92911443D01*
X109509853Y-92928616D01*
X109396627Y-92962963D01*
X109330442Y-92969482D01*
X109264260Y-92976000D01*
X109175740Y-92976000D01*
X109109558Y-92969482D01*
X109043373Y-92962963D01*
X108930147Y-92928616D01*
X108873533Y-92911443D01*
X108717011Y-92827779D01*
X108717009Y-92827778D01*
X108681271Y-92798448D01*
X108579814Y-92715186D01*
X108496552Y-92613729D01*
X108467222Y-92577991D01*
X108457652Y-92560087D01*
X108383557Y-92421467D01*
X108359148Y-92341000D01*
X108332037Y-92251627D01*
X108314641Y-92075000D01*
X108332037Y-91898373D01*
X108383557Y-91728534D01*
X108383557Y-91728533D01*
X108467221Y-91572011D01*
X108467222Y-91572009D01*
X108496552Y-91536271D01*
X108579814Y-91434814D01*
X108681271Y-91351552D01*
X108717009Y-91322222D01*
X108741745Y-91309000D01*
X108873533Y-91238557D01*
X108930147Y-91221384D01*
X109043373Y-91187037D01*
X109109558Y-91180518D01*
X109175740Y-91174000D01*
X109264260Y-91174000D01*
X109330442Y-91180518D01*
X109330442Y-91180518D01*
G37*
G36*
X132981000Y-92341000D02*
X131179000Y-92341000D01*
X131179000Y-90539000D01*
X132981000Y-90539000D01*
X132981000Y-92341000D01*
X132981000Y-92341000D01*
G37*
G36*
X127771000Y-92211000D02*
X126769000Y-92211000D01*
X126769000Y-91309000D01*
X127771000Y-91309000D01*
X127771000Y-92211000D01*
X127771000Y-92211000D01*
G37*
G36*
X115981000Y-92026000D02*
X114279000Y-92026000D01*
X114279000Y-85774000D01*
X115981000Y-85774000D01*
X115981000Y-92026000D01*
X115981000Y-92026000D01*
G37*
G36*
X124481000Y-92026000D02*
X122779000Y-92026000D01*
X122779000Y-85774000D01*
X124481000Y-85774000D01*
X124481000Y-92026000D01*
X124481000Y-92026000D01*
G37*
G36*
X111870443Y-88640519D02*
X111936627Y-88647037D01*
X112049853Y-88681384D01*
X112106467Y-88698557D01*
X112245087Y-88772652D01*
X112262991Y-88782222D01*
X112298729Y-88811552D01*
X112400186Y-88894814D01*
X112465171Y-88974000D01*
X112512778Y-89032009D01*
X112512779Y-89032011D01*
X112596443Y-89188533D01*
X112596443Y-89188534D01*
X112647963Y-89358373D01*
X112665359Y-89535000D01*
X112647963Y-89711627D01*
X112629042Y-89774000D01*
X112596443Y-89881467D01*
X112522348Y-90020087D01*
X112512778Y-90037991D01*
X112483448Y-90073729D01*
X112400186Y-90175186D01*
X112298729Y-90258448D01*
X112262991Y-90287778D01*
X112262989Y-90287779D01*
X112106467Y-90371443D01*
X112049853Y-90388616D01*
X111936627Y-90422963D01*
X111870443Y-90429481D01*
X111804260Y-90436000D01*
X111715740Y-90436000D01*
X111649557Y-90429481D01*
X111583373Y-90422963D01*
X111470147Y-90388616D01*
X111413533Y-90371443D01*
X111257011Y-90287779D01*
X111257009Y-90287778D01*
X111221271Y-90258448D01*
X111119814Y-90175186D01*
X111036552Y-90073729D01*
X111007222Y-90037991D01*
X110997652Y-90020087D01*
X110923557Y-89881467D01*
X110890958Y-89774000D01*
X110872037Y-89711627D01*
X110854641Y-89535000D01*
X110872037Y-89358373D01*
X110923557Y-89188534D01*
X110923557Y-89188533D01*
X111007221Y-89032011D01*
X111007222Y-89032009D01*
X111054829Y-88974000D01*
X111119814Y-88894814D01*
X111221271Y-88811552D01*
X111257009Y-88782222D01*
X111274913Y-88772652D01*
X111413533Y-88698557D01*
X111470147Y-88681384D01*
X111583373Y-88647037D01*
X111649557Y-88640519D01*
X111715740Y-88634000D01*
X111804260Y-88634000D01*
X111870443Y-88640519D01*
X111870443Y-88640519D01*
G37*
G36*
X109330443Y-88640519D02*
X109396627Y-88647037D01*
X109509853Y-88681384D01*
X109566467Y-88698557D01*
X109705087Y-88772652D01*
X109722991Y-88782222D01*
X109758729Y-88811552D01*
X109860186Y-88894814D01*
X109925171Y-88974000D01*
X109972778Y-89032009D01*
X109972779Y-89032011D01*
X110056443Y-89188533D01*
X110056443Y-89188534D01*
X110107963Y-89358373D01*
X110125359Y-89535000D01*
X110107963Y-89711627D01*
X110089042Y-89774000D01*
X110056443Y-89881467D01*
X109982348Y-90020087D01*
X109972778Y-90037991D01*
X109943448Y-90073729D01*
X109860186Y-90175186D01*
X109758729Y-90258448D01*
X109722991Y-90287778D01*
X109722989Y-90287779D01*
X109566467Y-90371443D01*
X109509853Y-90388616D01*
X109396627Y-90422963D01*
X109330443Y-90429481D01*
X109264260Y-90436000D01*
X109175740Y-90436000D01*
X109109557Y-90429481D01*
X109043373Y-90422963D01*
X108930147Y-90388616D01*
X108873533Y-90371443D01*
X108717011Y-90287779D01*
X108717009Y-90287778D01*
X108681271Y-90258448D01*
X108579814Y-90175186D01*
X108496552Y-90073729D01*
X108467222Y-90037991D01*
X108457652Y-90020087D01*
X108383557Y-89881467D01*
X108350958Y-89774000D01*
X108332037Y-89711627D01*
X108314641Y-89535000D01*
X108332037Y-89358373D01*
X108383557Y-89188534D01*
X108383557Y-89188533D01*
X108467221Y-89032011D01*
X108467222Y-89032009D01*
X108514829Y-88974000D01*
X108579814Y-88894814D01*
X108681271Y-88811552D01*
X108717009Y-88782222D01*
X108734913Y-88772652D01*
X108873533Y-88698557D01*
X108930147Y-88681384D01*
X109043373Y-88647037D01*
X109109557Y-88640519D01*
X109175740Y-88634000D01*
X109264260Y-88634000D01*
X109330443Y-88640519D01*
X109330443Y-88640519D01*
G37*
G36*
X127771000Y-90301000D02*
X126769000Y-90301000D01*
X126769000Y-89399000D01*
X127771000Y-89399000D01*
X127771000Y-90301000D01*
X127771000Y-90301000D01*
G37*
G36*
X129771000Y-89351000D02*
X128769000Y-89351000D01*
X128769000Y-88449000D01*
X129771000Y-88449000D01*
X129771000Y-89351000D01*
X129771000Y-89351000D01*
G37*
G36*
X132981000Y-88531000D02*
X131179000Y-88531000D01*
X131179000Y-86729000D01*
X132981000Y-86729000D01*
X132981000Y-88531000D01*
X132981000Y-88531000D01*
G37*
G36*
X127771000Y-88401000D02*
X126769000Y-88401000D01*
X126769000Y-87499000D01*
X127771000Y-87499000D01*
X127771000Y-88401000D01*
X127771000Y-88401000D01*
G37*
G36*
X111870442Y-86100518D02*
X111936627Y-86107037D01*
X112049853Y-86141384D01*
X112106467Y-86158557D01*
X112245087Y-86232652D01*
X112262991Y-86242222D01*
X112298729Y-86271552D01*
X112400186Y-86354814D01*
X112483448Y-86456271D01*
X112512778Y-86492009D01*
X112512779Y-86492011D01*
X112596443Y-86648533D01*
X112596443Y-86648534D01*
X112647963Y-86818373D01*
X112665359Y-86995000D01*
X112647963Y-87171627D01*
X112631469Y-87226000D01*
X112596443Y-87341467D01*
X112579053Y-87374000D01*
X112512778Y-87497991D01*
X112483448Y-87533729D01*
X112400186Y-87635186D01*
X112298729Y-87718448D01*
X112262991Y-87747778D01*
X112262989Y-87747779D01*
X112106467Y-87831443D01*
X112049853Y-87848616D01*
X111936627Y-87882963D01*
X111870443Y-87889481D01*
X111804260Y-87896000D01*
X111715740Y-87896000D01*
X111649557Y-87889481D01*
X111583373Y-87882963D01*
X111470147Y-87848616D01*
X111413533Y-87831443D01*
X111257011Y-87747779D01*
X111257009Y-87747778D01*
X111221271Y-87718448D01*
X111119814Y-87635186D01*
X111036552Y-87533729D01*
X111007222Y-87497991D01*
X110940947Y-87374000D01*
X110923557Y-87341467D01*
X110888531Y-87226000D01*
X110872037Y-87171627D01*
X110854641Y-86995000D01*
X110872037Y-86818373D01*
X110923557Y-86648534D01*
X110923557Y-86648533D01*
X111007221Y-86492011D01*
X111007222Y-86492009D01*
X111036552Y-86456271D01*
X111119814Y-86354814D01*
X111221271Y-86271552D01*
X111257009Y-86242222D01*
X111274913Y-86232652D01*
X111413533Y-86158557D01*
X111470147Y-86141384D01*
X111583373Y-86107037D01*
X111649558Y-86100518D01*
X111715740Y-86094000D01*
X111804260Y-86094000D01*
X111870442Y-86100518D01*
X111870442Y-86100518D01*
G37*
G36*
X109330442Y-86100518D02*
X109396627Y-86107037D01*
X109509853Y-86141384D01*
X109566467Y-86158557D01*
X109705087Y-86232652D01*
X109722991Y-86242222D01*
X109758729Y-86271552D01*
X109860186Y-86354814D01*
X109943448Y-86456271D01*
X109972778Y-86492009D01*
X109972779Y-86492011D01*
X110056443Y-86648533D01*
X110056443Y-86648534D01*
X110107963Y-86818373D01*
X110125359Y-86995000D01*
X110107963Y-87171627D01*
X110091469Y-87226000D01*
X110056443Y-87341467D01*
X110039053Y-87374000D01*
X109972778Y-87497991D01*
X109943448Y-87533729D01*
X109860186Y-87635186D01*
X109758729Y-87718448D01*
X109722991Y-87747778D01*
X109722989Y-87747779D01*
X109566467Y-87831443D01*
X109509853Y-87848616D01*
X109396627Y-87882963D01*
X109330443Y-87889481D01*
X109264260Y-87896000D01*
X109175740Y-87896000D01*
X109109557Y-87889481D01*
X109043373Y-87882963D01*
X108930147Y-87848616D01*
X108873533Y-87831443D01*
X108717011Y-87747779D01*
X108717009Y-87747778D01*
X108681271Y-87718448D01*
X108579814Y-87635186D01*
X108496552Y-87533729D01*
X108467222Y-87497991D01*
X108400947Y-87374000D01*
X108383557Y-87341467D01*
X108348531Y-87226000D01*
X108332037Y-87171627D01*
X108314641Y-86995000D01*
X108332037Y-86818373D01*
X108383557Y-86648534D01*
X108383557Y-86648533D01*
X108467221Y-86492011D01*
X108467222Y-86492009D01*
X108496552Y-86456271D01*
X108579814Y-86354814D01*
X108681271Y-86271552D01*
X108717009Y-86242222D01*
X108734913Y-86232652D01*
X108873533Y-86158557D01*
X108930147Y-86141384D01*
X109043373Y-86107037D01*
X109109558Y-86100518D01*
X109175740Y-86094000D01*
X109264260Y-86094000D01*
X109330442Y-86100518D01*
X109330442Y-86100518D01*
G37*
G36*
X127771000Y-86491000D02*
X126769000Y-86491000D01*
X126769000Y-85589000D01*
X127771000Y-85589000D01*
X127771000Y-86491000D01*
X127771000Y-86491000D01*
G37*
G36*
X129771000Y-85541000D02*
X128769000Y-85541000D01*
X128769000Y-84639000D01*
X129771000Y-84639000D01*
X129771000Y-85541000D01*
X129771000Y-85541000D01*
G37*
G36*
X122506000Y-85501000D02*
X116254000Y-85501000D01*
X116254000Y-83799000D01*
X122506000Y-83799000D01*
X122506000Y-85501000D01*
X122506000Y-85501000D01*
G37*
G36*
X109608604Y-82898347D02*
X109645145Y-82909432D01*
X109678820Y-82927431D01*
X109708341Y-82951659D01*
X109732569Y-82981180D01*
X109750568Y-83014855D01*
X109761653Y-83051396D01*
X109766000Y-83095538D01*
X109766000Y-84544462D01*
X109761653Y-84588604D01*
X109750568Y-84625145D01*
X109732569Y-84658820D01*
X109708341Y-84688341D01*
X109678820Y-84712569D01*
X109645145Y-84730568D01*
X109608604Y-84741653D01*
X109564462Y-84746000D01*
X108615538Y-84746000D01*
X108571396Y-84741653D01*
X108534855Y-84730568D01*
X108501180Y-84712569D01*
X108471659Y-84688341D01*
X108447431Y-84658820D01*
X108429432Y-84625145D01*
X108418347Y-84588604D01*
X108414000Y-84544462D01*
X108414000Y-83095538D01*
X108418347Y-83051396D01*
X108429432Y-83014855D01*
X108447431Y-82981180D01*
X108471659Y-82951659D01*
X108501180Y-82927431D01*
X108534855Y-82909432D01*
X108571396Y-82898347D01*
X108615538Y-82894000D01*
X109564462Y-82894000D01*
X109608604Y-82898347D01*
X109608604Y-82898347D01*
G37*
G36*
X112408604Y-82898347D02*
X112445145Y-82909432D01*
X112478820Y-82927431D01*
X112508341Y-82951659D01*
X112532569Y-82981180D01*
X112550568Y-83014855D01*
X112561653Y-83051396D01*
X112566000Y-83095538D01*
X112566000Y-84544462D01*
X112561653Y-84588604D01*
X112550568Y-84625145D01*
X112532569Y-84658820D01*
X112508341Y-84688341D01*
X112478820Y-84712569D01*
X112445145Y-84730568D01*
X112408604Y-84741653D01*
X112364462Y-84746000D01*
X111415538Y-84746000D01*
X111371396Y-84741653D01*
X111334855Y-84730568D01*
X111301180Y-84712569D01*
X111271659Y-84688341D01*
X111247431Y-84658820D01*
X111229432Y-84625145D01*
X111218347Y-84588604D01*
X111214000Y-84544462D01*
X111214000Y-83095538D01*
X111218347Y-83051396D01*
X111229432Y-83014855D01*
X111247431Y-82981180D01*
X111271659Y-82951659D01*
X111301180Y-82927431D01*
X111334855Y-82909432D01*
X111371396Y-82898347D01*
X111415538Y-82894000D01*
X112364462Y-82894000D01*
X112408604Y-82898347D01*
X112408604Y-82898347D01*
G37*
G36*
X132981000Y-84721000D02*
X131179000Y-84721000D01*
X131179000Y-82919000D01*
X132981000Y-82919000D01*
X132981000Y-84721000D01*
X132981000Y-84721000D01*
G37*
G36*
X127771000Y-84591000D02*
X126769000Y-84591000D01*
X126769000Y-83689000D01*
X127771000Y-83689000D01*
X127771000Y-84591000D01*
X127771000Y-84591000D01*
G37*
M02*
