G04 #@! TF.GenerationSoftware,KiCad,Pcbnew,5.0.1*
G04 #@! TF.CreationDate,2019-03-16T14:53:00+03:00*
G04 #@! TF.ProjectId,smartpoi,736D617274706F692E6B696361645F70,rev?*
G04 #@! TF.SameCoordinates,Original*
G04 #@! TF.FileFunction,Soldermask,Bot*
G04 #@! TF.FilePolarity,Negative*
%FSLAX46Y46*%
G04 Gerber Fmt 4.6, Leading zero omitted, Abs format (unit mm)*
G04 Created by KiCad (PCBNEW 5.0.1) date Сб 16 мар 2019 14:53:00*
%MOMM*%
%LPD*%
G01*
G04 APERTURE LIST*
%ADD10C,0.100000*%
G04 APERTURE END LIST*
D10*
G36*
X132981000Y-96151000D02*
X131179000Y-96151000D01*
X131179000Y-94349000D01*
X132981000Y-94349000D01*
X132981000Y-96151000D01*
X132981000Y-96151000D01*
G37*
G36*
X112661000Y-92976000D02*
X110859000Y-92976000D01*
X110859000Y-91174000D01*
X112661000Y-91174000D01*
X112661000Y-92976000D01*
X112661000Y-92976000D01*
G37*
G36*
X109330442Y-91180518D02*
X109396627Y-91187037D01*
X109509853Y-91221384D01*
X109566467Y-91238557D01*
X109705087Y-91312652D01*
X109722991Y-91322222D01*
X109758729Y-91351552D01*
X109860186Y-91434814D01*
X109943448Y-91536271D01*
X109972778Y-91572009D01*
X109972779Y-91572011D01*
X110056443Y-91728533D01*
X110056443Y-91728534D01*
X110107963Y-91898373D01*
X110125359Y-92075000D01*
X110107963Y-92251627D01*
X110080852Y-92341000D01*
X110056443Y-92421467D01*
X109982348Y-92560087D01*
X109972778Y-92577991D01*
X109943448Y-92613729D01*
X109860186Y-92715186D01*
X109758729Y-92798448D01*
X109722991Y-92827778D01*
X109722989Y-92827779D01*
X109566467Y-92911443D01*
X109509853Y-92928616D01*
X109396627Y-92962963D01*
X109330442Y-92969482D01*
X109264260Y-92976000D01*
X109175740Y-92976000D01*
X109109558Y-92969482D01*
X109043373Y-92962963D01*
X108930147Y-92928616D01*
X108873533Y-92911443D01*
X108717011Y-92827779D01*
X108717009Y-92827778D01*
X108681271Y-92798448D01*
X108579814Y-92715186D01*
X108496552Y-92613729D01*
X108467222Y-92577991D01*
X108457652Y-92560087D01*
X108383557Y-92421467D01*
X108359148Y-92341000D01*
X108332037Y-92251627D01*
X108314641Y-92075000D01*
X108332037Y-91898373D01*
X108383557Y-91728534D01*
X108383557Y-91728533D01*
X108467221Y-91572011D01*
X108467222Y-91572009D01*
X108496552Y-91536271D01*
X108579814Y-91434814D01*
X108681271Y-91351552D01*
X108717009Y-91322222D01*
X108734913Y-91312652D01*
X108873533Y-91238557D01*
X108930147Y-91221384D01*
X109043373Y-91187037D01*
X109109558Y-91180518D01*
X109175740Y-91174000D01*
X109264260Y-91174000D01*
X109330442Y-91180518D01*
X109330442Y-91180518D01*
G37*
G36*
X132981000Y-92341000D02*
X131179000Y-92341000D01*
X131179000Y-90539000D01*
X132981000Y-90539000D01*
X132981000Y-92341000D01*
X132981000Y-92341000D01*
G37*
G36*
X109330443Y-88640519D02*
X109396627Y-88647037D01*
X109509853Y-88681384D01*
X109566467Y-88698557D01*
X109705087Y-88772652D01*
X109722991Y-88782222D01*
X109758729Y-88811552D01*
X109860186Y-88894814D01*
X109943448Y-88996271D01*
X109972778Y-89032009D01*
X109972779Y-89032011D01*
X110056443Y-89188533D01*
X110056443Y-89188534D01*
X110107963Y-89358373D01*
X110125359Y-89535000D01*
X110107963Y-89711627D01*
X110073616Y-89824853D01*
X110056443Y-89881467D01*
X109982348Y-90020087D01*
X109972778Y-90037991D01*
X109943448Y-90073729D01*
X109860186Y-90175186D01*
X109758729Y-90258448D01*
X109722991Y-90287778D01*
X109722989Y-90287779D01*
X109566467Y-90371443D01*
X109509853Y-90388616D01*
X109396627Y-90422963D01*
X109330443Y-90429481D01*
X109264260Y-90436000D01*
X109175740Y-90436000D01*
X109109557Y-90429481D01*
X109043373Y-90422963D01*
X108930147Y-90388616D01*
X108873533Y-90371443D01*
X108717011Y-90287779D01*
X108717009Y-90287778D01*
X108681271Y-90258448D01*
X108579814Y-90175186D01*
X108496552Y-90073729D01*
X108467222Y-90037991D01*
X108457652Y-90020087D01*
X108383557Y-89881467D01*
X108366384Y-89824853D01*
X108332037Y-89711627D01*
X108314641Y-89535000D01*
X108332037Y-89358373D01*
X108383557Y-89188534D01*
X108383557Y-89188533D01*
X108467221Y-89032011D01*
X108467222Y-89032009D01*
X108496552Y-88996271D01*
X108579814Y-88894814D01*
X108681271Y-88811552D01*
X108717009Y-88782222D01*
X108734913Y-88772652D01*
X108873533Y-88698557D01*
X108930147Y-88681384D01*
X109043373Y-88647037D01*
X109109557Y-88640519D01*
X109175740Y-88634000D01*
X109264260Y-88634000D01*
X109330443Y-88640519D01*
X109330443Y-88640519D01*
G37*
G36*
X111870443Y-88640519D02*
X111936627Y-88647037D01*
X112049853Y-88681384D01*
X112106467Y-88698557D01*
X112245087Y-88772652D01*
X112262991Y-88782222D01*
X112298729Y-88811552D01*
X112400186Y-88894814D01*
X112483448Y-88996271D01*
X112512778Y-89032009D01*
X112512779Y-89032011D01*
X112596443Y-89188533D01*
X112596443Y-89188534D01*
X112647963Y-89358373D01*
X112665359Y-89535000D01*
X112647963Y-89711627D01*
X112613616Y-89824853D01*
X112596443Y-89881467D01*
X112522348Y-90020087D01*
X112512778Y-90037991D01*
X112483448Y-90073729D01*
X112400186Y-90175186D01*
X112298729Y-90258448D01*
X112262991Y-90287778D01*
X112262989Y-90287779D01*
X112106467Y-90371443D01*
X112049853Y-90388616D01*
X111936627Y-90422963D01*
X111870443Y-90429481D01*
X111804260Y-90436000D01*
X111715740Y-90436000D01*
X111649557Y-90429481D01*
X111583373Y-90422963D01*
X111470147Y-90388616D01*
X111413533Y-90371443D01*
X111257011Y-90287779D01*
X111257009Y-90287778D01*
X111221271Y-90258448D01*
X111119814Y-90175186D01*
X111036552Y-90073729D01*
X111007222Y-90037991D01*
X110997652Y-90020087D01*
X110923557Y-89881467D01*
X110906384Y-89824853D01*
X110872037Y-89711627D01*
X110854641Y-89535000D01*
X110872037Y-89358373D01*
X110923557Y-89188534D01*
X110923557Y-89188533D01*
X111007221Y-89032011D01*
X111007222Y-89032009D01*
X111036552Y-88996271D01*
X111119814Y-88894814D01*
X111221271Y-88811552D01*
X111257009Y-88782222D01*
X111274913Y-88772652D01*
X111413533Y-88698557D01*
X111470147Y-88681384D01*
X111583373Y-88647037D01*
X111649557Y-88640519D01*
X111715740Y-88634000D01*
X111804260Y-88634000D01*
X111870443Y-88640519D01*
X111870443Y-88640519D01*
G37*
G36*
X132981000Y-88531000D02*
X131179000Y-88531000D01*
X131179000Y-86729000D01*
X132981000Y-86729000D01*
X132981000Y-88531000D01*
X132981000Y-88531000D01*
G37*
G36*
X111870442Y-86100518D02*
X111936627Y-86107037D01*
X112049853Y-86141384D01*
X112106467Y-86158557D01*
X112245087Y-86232652D01*
X112262991Y-86242222D01*
X112298729Y-86271552D01*
X112400186Y-86354814D01*
X112483448Y-86456271D01*
X112512778Y-86492009D01*
X112512779Y-86492011D01*
X112596443Y-86648533D01*
X112596443Y-86648534D01*
X112647963Y-86818373D01*
X112665359Y-86995000D01*
X112647963Y-87171627D01*
X112613616Y-87284853D01*
X112596443Y-87341467D01*
X112522348Y-87480087D01*
X112512778Y-87497991D01*
X112483448Y-87533729D01*
X112400186Y-87635186D01*
X112298729Y-87718448D01*
X112262991Y-87747778D01*
X112262989Y-87747779D01*
X112106467Y-87831443D01*
X112049853Y-87848616D01*
X111936627Y-87882963D01*
X111870443Y-87889481D01*
X111804260Y-87896000D01*
X111715740Y-87896000D01*
X111649557Y-87889481D01*
X111583373Y-87882963D01*
X111470147Y-87848616D01*
X111413533Y-87831443D01*
X111257011Y-87747779D01*
X111257009Y-87747778D01*
X111221271Y-87718448D01*
X111119814Y-87635186D01*
X111036552Y-87533729D01*
X111007222Y-87497991D01*
X110997652Y-87480087D01*
X110923557Y-87341467D01*
X110906384Y-87284853D01*
X110872037Y-87171627D01*
X110854641Y-86995000D01*
X110872037Y-86818373D01*
X110923557Y-86648534D01*
X110923557Y-86648533D01*
X111007221Y-86492011D01*
X111007222Y-86492009D01*
X111036552Y-86456271D01*
X111119814Y-86354814D01*
X111221271Y-86271552D01*
X111257009Y-86242222D01*
X111274913Y-86232652D01*
X111413533Y-86158557D01*
X111470147Y-86141384D01*
X111583373Y-86107037D01*
X111649558Y-86100518D01*
X111715740Y-86094000D01*
X111804260Y-86094000D01*
X111870442Y-86100518D01*
X111870442Y-86100518D01*
G37*
G36*
X109330442Y-86100518D02*
X109396627Y-86107037D01*
X109509853Y-86141384D01*
X109566467Y-86158557D01*
X109705087Y-86232652D01*
X109722991Y-86242222D01*
X109758729Y-86271552D01*
X109860186Y-86354814D01*
X109943448Y-86456271D01*
X109972778Y-86492009D01*
X109972779Y-86492011D01*
X110056443Y-86648533D01*
X110056443Y-86648534D01*
X110107963Y-86818373D01*
X110125359Y-86995000D01*
X110107963Y-87171627D01*
X110073616Y-87284853D01*
X110056443Y-87341467D01*
X109982348Y-87480087D01*
X109972778Y-87497991D01*
X109943448Y-87533729D01*
X109860186Y-87635186D01*
X109758729Y-87718448D01*
X109722991Y-87747778D01*
X109722989Y-87747779D01*
X109566467Y-87831443D01*
X109509853Y-87848616D01*
X109396627Y-87882963D01*
X109330443Y-87889481D01*
X109264260Y-87896000D01*
X109175740Y-87896000D01*
X109109557Y-87889481D01*
X109043373Y-87882963D01*
X108930147Y-87848616D01*
X108873533Y-87831443D01*
X108717011Y-87747779D01*
X108717009Y-87747778D01*
X108681271Y-87718448D01*
X108579814Y-87635186D01*
X108496552Y-87533729D01*
X108467222Y-87497991D01*
X108457652Y-87480087D01*
X108383557Y-87341467D01*
X108366384Y-87284853D01*
X108332037Y-87171627D01*
X108314641Y-86995000D01*
X108332037Y-86818373D01*
X108383557Y-86648534D01*
X108383557Y-86648533D01*
X108467221Y-86492011D01*
X108467222Y-86492009D01*
X108496552Y-86456271D01*
X108579814Y-86354814D01*
X108681271Y-86271552D01*
X108717009Y-86242222D01*
X108734913Y-86232652D01*
X108873533Y-86158557D01*
X108930147Y-86141384D01*
X109043373Y-86107037D01*
X109109558Y-86100518D01*
X109175740Y-86094000D01*
X109264260Y-86094000D01*
X109330442Y-86100518D01*
X109330442Y-86100518D01*
G37*
G36*
X132981000Y-84721000D02*
X131179000Y-84721000D01*
X131179000Y-82919000D01*
X132981000Y-82919000D01*
X132981000Y-84721000D01*
X132981000Y-84721000D01*
G37*
M02*
