G04 #@! TF.GenerationSoftware,KiCad,Pcbnew,5.0.1*
G04 #@! TF.CreationDate,2019-03-16T14:53:00+03:00*
G04 #@! TF.ProjectId,smartpoi,736D617274706F692E6B696361645F70,rev?*
G04 #@! TF.SameCoordinates,Original*
G04 #@! TF.FileFunction,Paste,Top*
G04 #@! TF.FilePolarity,Positive*
%FSLAX46Y46*%
G04 Gerber Fmt 4.6, Leading zero omitted, Abs format (unit mm)*
G04 Created by KiCad (PCBNEW 5.0.1) date Сб 16 мар 2019 14:53:00*
%MOMM*%
%LPD*%
G01*
G04 APERTURE LIST*
%ADD10R,0.900000X0.800000*%
%ADD11C,0.100000*%
%ADD12C,1.250000*%
%ADD13R,0.550000X1.600000*%
%ADD14R,1.600000X0.550000*%
G04 APERTURE END LIST*
D10*
G04 #@! TO.C,Q1*
X127270000Y-91760000D03*
X127270000Y-93660000D03*
X129270000Y-92710000D03*
G04 #@! TD*
G04 #@! TO.C,Q2*
X129270000Y-88900000D03*
X127270000Y-89850000D03*
X127270000Y-87950000D03*
G04 #@! TD*
G04 #@! TO.C,Q3*
X127270000Y-84140000D03*
X127270000Y-86040000D03*
X129270000Y-85090000D03*
G04 #@! TD*
D11*
G04 #@! TO.C,R1*
G36*
X109489504Y-82946204D02*
X109513773Y-82949804D01*
X109537571Y-82955765D01*
X109560671Y-82964030D01*
X109582849Y-82974520D01*
X109603893Y-82987133D01*
X109623598Y-83001747D01*
X109641777Y-83018223D01*
X109658253Y-83036402D01*
X109672867Y-83056107D01*
X109685480Y-83077151D01*
X109695970Y-83099329D01*
X109704235Y-83122429D01*
X109710196Y-83146227D01*
X109713796Y-83170496D01*
X109715000Y-83195000D01*
X109715000Y-84445000D01*
X109713796Y-84469504D01*
X109710196Y-84493773D01*
X109704235Y-84517571D01*
X109695970Y-84540671D01*
X109685480Y-84562849D01*
X109672867Y-84583893D01*
X109658253Y-84603598D01*
X109641777Y-84621777D01*
X109623598Y-84638253D01*
X109603893Y-84652867D01*
X109582849Y-84665480D01*
X109560671Y-84675970D01*
X109537571Y-84684235D01*
X109513773Y-84690196D01*
X109489504Y-84693796D01*
X109465000Y-84695000D01*
X108715000Y-84695000D01*
X108690496Y-84693796D01*
X108666227Y-84690196D01*
X108642429Y-84684235D01*
X108619329Y-84675970D01*
X108597151Y-84665480D01*
X108576107Y-84652867D01*
X108556402Y-84638253D01*
X108538223Y-84621777D01*
X108521747Y-84603598D01*
X108507133Y-84583893D01*
X108494520Y-84562849D01*
X108484030Y-84540671D01*
X108475765Y-84517571D01*
X108469804Y-84493773D01*
X108466204Y-84469504D01*
X108465000Y-84445000D01*
X108465000Y-83195000D01*
X108466204Y-83170496D01*
X108469804Y-83146227D01*
X108475765Y-83122429D01*
X108484030Y-83099329D01*
X108494520Y-83077151D01*
X108507133Y-83056107D01*
X108521747Y-83036402D01*
X108538223Y-83018223D01*
X108556402Y-83001747D01*
X108576107Y-82987133D01*
X108597151Y-82974520D01*
X108619329Y-82964030D01*
X108642429Y-82955765D01*
X108666227Y-82949804D01*
X108690496Y-82946204D01*
X108715000Y-82945000D01*
X109465000Y-82945000D01*
X109489504Y-82946204D01*
X109489504Y-82946204D01*
G37*
D12*
X109090000Y-83820000D03*
D11*
G36*
X112289504Y-82946204D02*
X112313773Y-82949804D01*
X112337571Y-82955765D01*
X112360671Y-82964030D01*
X112382849Y-82974520D01*
X112403893Y-82987133D01*
X112423598Y-83001747D01*
X112441777Y-83018223D01*
X112458253Y-83036402D01*
X112472867Y-83056107D01*
X112485480Y-83077151D01*
X112495970Y-83099329D01*
X112504235Y-83122429D01*
X112510196Y-83146227D01*
X112513796Y-83170496D01*
X112515000Y-83195000D01*
X112515000Y-84445000D01*
X112513796Y-84469504D01*
X112510196Y-84493773D01*
X112504235Y-84517571D01*
X112495970Y-84540671D01*
X112485480Y-84562849D01*
X112472867Y-84583893D01*
X112458253Y-84603598D01*
X112441777Y-84621777D01*
X112423598Y-84638253D01*
X112403893Y-84652867D01*
X112382849Y-84665480D01*
X112360671Y-84675970D01*
X112337571Y-84684235D01*
X112313773Y-84690196D01*
X112289504Y-84693796D01*
X112265000Y-84695000D01*
X111515000Y-84695000D01*
X111490496Y-84693796D01*
X111466227Y-84690196D01*
X111442429Y-84684235D01*
X111419329Y-84675970D01*
X111397151Y-84665480D01*
X111376107Y-84652867D01*
X111356402Y-84638253D01*
X111338223Y-84621777D01*
X111321747Y-84603598D01*
X111307133Y-84583893D01*
X111294520Y-84562849D01*
X111284030Y-84540671D01*
X111275765Y-84517571D01*
X111269804Y-84493773D01*
X111266204Y-84469504D01*
X111265000Y-84445000D01*
X111265000Y-83195000D01*
X111266204Y-83170496D01*
X111269804Y-83146227D01*
X111275765Y-83122429D01*
X111284030Y-83099329D01*
X111294520Y-83077151D01*
X111307133Y-83056107D01*
X111321747Y-83036402D01*
X111338223Y-83018223D01*
X111356402Y-83001747D01*
X111376107Y-82987133D01*
X111397151Y-82974520D01*
X111419329Y-82964030D01*
X111442429Y-82955765D01*
X111466227Y-82949804D01*
X111490496Y-82946204D01*
X111515000Y-82945000D01*
X112265000Y-82945000D01*
X112289504Y-82946204D01*
X112289504Y-82946204D01*
G37*
D12*
X111890000Y-83820000D03*
G04 #@! TD*
D13*
G04 #@! TO.C,U1*
X122180000Y-84650000D03*
X121380000Y-84650000D03*
X120580000Y-84650000D03*
X119780000Y-84650000D03*
X118980000Y-84650000D03*
X118180000Y-84650000D03*
X117380000Y-84650000D03*
X116580000Y-84650000D03*
D14*
X115130000Y-86100000D03*
X115130000Y-86900000D03*
X115130000Y-87700000D03*
X115130000Y-88500000D03*
X115130000Y-89300000D03*
X115130000Y-90100000D03*
X115130000Y-90900000D03*
X115130000Y-91700000D03*
D13*
X116580000Y-93150000D03*
X117380000Y-93150000D03*
X118180000Y-93150000D03*
X118980000Y-93150000D03*
X119780000Y-93150000D03*
X120580000Y-93150000D03*
X121380000Y-93150000D03*
X122180000Y-93150000D03*
D14*
X123630000Y-91700000D03*
X123630000Y-90900000D03*
X123630000Y-90100000D03*
X123630000Y-89300000D03*
X123630000Y-88500000D03*
X123630000Y-87700000D03*
X123630000Y-86900000D03*
X123630000Y-86100000D03*
G04 #@! TD*
D11*
G04 #@! TO.C,C1*
G36*
X109619504Y-94376204D02*
X109643773Y-94379804D01*
X109667571Y-94385765D01*
X109690671Y-94394030D01*
X109712849Y-94404520D01*
X109733893Y-94417133D01*
X109753598Y-94431747D01*
X109771777Y-94448223D01*
X109788253Y-94466402D01*
X109802867Y-94486107D01*
X109815480Y-94507151D01*
X109825970Y-94529329D01*
X109834235Y-94552429D01*
X109840196Y-94576227D01*
X109843796Y-94600496D01*
X109845000Y-94625000D01*
X109845000Y-95875000D01*
X109843796Y-95899504D01*
X109840196Y-95923773D01*
X109834235Y-95947571D01*
X109825970Y-95970671D01*
X109815480Y-95992849D01*
X109802867Y-96013893D01*
X109788253Y-96033598D01*
X109771777Y-96051777D01*
X109753598Y-96068253D01*
X109733893Y-96082867D01*
X109712849Y-96095480D01*
X109690671Y-96105970D01*
X109667571Y-96114235D01*
X109643773Y-96120196D01*
X109619504Y-96123796D01*
X109595000Y-96125000D01*
X108845000Y-96125000D01*
X108820496Y-96123796D01*
X108796227Y-96120196D01*
X108772429Y-96114235D01*
X108749329Y-96105970D01*
X108727151Y-96095480D01*
X108706107Y-96082867D01*
X108686402Y-96068253D01*
X108668223Y-96051777D01*
X108651747Y-96033598D01*
X108637133Y-96013893D01*
X108624520Y-95992849D01*
X108614030Y-95970671D01*
X108605765Y-95947571D01*
X108599804Y-95923773D01*
X108596204Y-95899504D01*
X108595000Y-95875000D01*
X108595000Y-94625000D01*
X108596204Y-94600496D01*
X108599804Y-94576227D01*
X108605765Y-94552429D01*
X108614030Y-94529329D01*
X108624520Y-94507151D01*
X108637133Y-94486107D01*
X108651747Y-94466402D01*
X108668223Y-94448223D01*
X108686402Y-94431747D01*
X108706107Y-94417133D01*
X108727151Y-94404520D01*
X108749329Y-94394030D01*
X108772429Y-94385765D01*
X108796227Y-94379804D01*
X108820496Y-94376204D01*
X108845000Y-94375000D01*
X109595000Y-94375000D01*
X109619504Y-94376204D01*
X109619504Y-94376204D01*
G37*
D12*
X109220000Y-95250000D03*
D11*
G36*
X112419504Y-94376204D02*
X112443773Y-94379804D01*
X112467571Y-94385765D01*
X112490671Y-94394030D01*
X112512849Y-94404520D01*
X112533893Y-94417133D01*
X112553598Y-94431747D01*
X112571777Y-94448223D01*
X112588253Y-94466402D01*
X112602867Y-94486107D01*
X112615480Y-94507151D01*
X112625970Y-94529329D01*
X112634235Y-94552429D01*
X112640196Y-94576227D01*
X112643796Y-94600496D01*
X112645000Y-94625000D01*
X112645000Y-95875000D01*
X112643796Y-95899504D01*
X112640196Y-95923773D01*
X112634235Y-95947571D01*
X112625970Y-95970671D01*
X112615480Y-95992849D01*
X112602867Y-96013893D01*
X112588253Y-96033598D01*
X112571777Y-96051777D01*
X112553598Y-96068253D01*
X112533893Y-96082867D01*
X112512849Y-96095480D01*
X112490671Y-96105970D01*
X112467571Y-96114235D01*
X112443773Y-96120196D01*
X112419504Y-96123796D01*
X112395000Y-96125000D01*
X111645000Y-96125000D01*
X111620496Y-96123796D01*
X111596227Y-96120196D01*
X111572429Y-96114235D01*
X111549329Y-96105970D01*
X111527151Y-96095480D01*
X111506107Y-96082867D01*
X111486402Y-96068253D01*
X111468223Y-96051777D01*
X111451747Y-96033598D01*
X111437133Y-96013893D01*
X111424520Y-95992849D01*
X111414030Y-95970671D01*
X111405765Y-95947571D01*
X111399804Y-95923773D01*
X111396204Y-95899504D01*
X111395000Y-95875000D01*
X111395000Y-94625000D01*
X111396204Y-94600496D01*
X111399804Y-94576227D01*
X111405765Y-94552429D01*
X111414030Y-94529329D01*
X111424520Y-94507151D01*
X111437133Y-94486107D01*
X111451747Y-94466402D01*
X111468223Y-94448223D01*
X111486402Y-94431747D01*
X111506107Y-94417133D01*
X111527151Y-94404520D01*
X111549329Y-94394030D01*
X111572429Y-94385765D01*
X111596227Y-94379804D01*
X111620496Y-94376204D01*
X111645000Y-94375000D01*
X112395000Y-94375000D01*
X112419504Y-94376204D01*
X112419504Y-94376204D01*
G37*
D12*
X112020000Y-95250000D03*
G04 #@! TD*
M02*
