G04 #@! TF.GenerationSoftware,KiCad,Pcbnew,5.0.1*
G04 #@! TF.CreationDate,2019-03-16T14:53:00+03:00*
G04 #@! TF.ProjectId,smartpoi,736D617274706F692E6B696361645F70,rev?*
G04 #@! TF.SameCoordinates,Original*
G04 #@! TF.FileFunction,Copper,L2,Bot,Signal*
G04 #@! TF.FilePolarity,Positive*
%FSLAX46Y46*%
G04 Gerber Fmt 4.6, Leading zero omitted, Abs format (unit mm)*
G04 Created by KiCad (PCBNEW 5.0.1) date Сб 16 мар 2019 14:53:00*
%MOMM*%
%LPD*%
G01*
G04 APERTURE LIST*
G04 #@! TA.AperFunction,ComponentPad*
%ADD10R,1.700000X1.700000*%
G04 #@! TD*
G04 #@! TA.AperFunction,ComponentPad*
%ADD11O,1.700000X1.700000*%
G04 #@! TD*
G04 #@! TA.AperFunction,ViaPad*
%ADD12C,0.800000*%
G04 #@! TD*
G04 #@! TA.AperFunction,Conductor*
%ADD13C,0.800000*%
G04 #@! TD*
G04 #@! TA.AperFunction,Conductor*
%ADD14C,0.400000*%
G04 #@! TD*
G04 #@! TA.AperFunction,Conductor*
%ADD15C,0.254000*%
G04 #@! TD*
G04 APERTURE END LIST*
D10*
G04 #@! TO.P,J5,1*
G04 #@! TO.N,GNDD*
X132080000Y-95250000D03*
G04 #@! TD*
G04 #@! TO.P,J6,1*
G04 #@! TO.N,/K_BLUE*
X132080000Y-83820000D03*
G04 #@! TD*
G04 #@! TO.P,J1,1*
G04 #@! TO.N,/MISO*
X111760000Y-92075000D03*
D11*
G04 #@! TO.P,J1,2*
G04 #@! TO.N,+3V8*
X109220000Y-92075000D03*
G04 #@! TO.P,J1,3*
G04 #@! TO.N,/SCK*
X111760000Y-89535000D03*
G04 #@! TO.P,J1,4*
G04 #@! TO.N,/MOSI*
X109220000Y-89535000D03*
G04 #@! TO.P,J1,5*
G04 #@! TO.N,/~RST*
X111760000Y-86995000D03*
G04 #@! TO.P,J1,6*
G04 #@! TO.N,GNDD*
X109220000Y-86995000D03*
G04 #@! TD*
D10*
G04 #@! TO.P,J2,1*
G04 #@! TO.N,/K_RED*
X132080000Y-91440000D03*
G04 #@! TD*
G04 #@! TO.P,J3,1*
G04 #@! TO.N,/K_GREEN*
X132080000Y-87630000D03*
G04 #@! TD*
D12*
G04 #@! TO.N,GNDD*
X113665000Y-95885000D03*
G04 #@! TO.N,/SCK*
X114935000Y-93814990D03*
G04 #@! TD*
D13*
G04 #@! TO.N,GNDD*
X108017919Y-86995000D02*
X107382919Y-87630000D01*
X109220000Y-86995000D02*
X108017919Y-86995000D01*
X107382919Y-87630000D02*
X107382919Y-95317919D01*
X107382919Y-95317919D02*
X107950000Y-95885000D01*
X107950000Y-95885000D02*
X113665000Y-95885000D01*
D14*
G04 #@! TO.N,/SCK*
X111760000Y-89535000D02*
X114935000Y-92710000D01*
X114935000Y-92710000D02*
X114935000Y-93249305D01*
X114935000Y-93249305D02*
X114935000Y-93814990D01*
G04 #@! TD*
D15*
G04 #@! TO.N,GNDD*
G36*
X130631843Y-82722235D02*
X130582560Y-82970000D01*
X130582560Y-84670000D01*
X130631843Y-84917765D01*
X130772191Y-85127809D01*
X130982235Y-85268157D01*
X131230000Y-85317440D01*
X132930000Y-85317440D01*
X133177765Y-85268157D01*
X133387809Y-85127809D01*
X133528157Y-84917765D01*
X133577440Y-84670000D01*
X133577440Y-82970000D01*
X133528157Y-82722235D01*
X133479891Y-82650000D01*
X134520001Y-82650000D01*
X134520000Y-96420000D01*
X133484770Y-96420000D01*
X133565000Y-96226309D01*
X133565000Y-95535750D01*
X133406250Y-95377000D01*
X132207000Y-95377000D01*
X132207000Y-95397000D01*
X131953000Y-95397000D01*
X131953000Y-95377000D01*
X130753750Y-95377000D01*
X130595000Y-95535750D01*
X130595000Y-96226309D01*
X130675230Y-96420000D01*
X107415000Y-96420000D01*
X107415000Y-89535000D01*
X107705908Y-89535000D01*
X107821161Y-90114418D01*
X108149375Y-90605625D01*
X108447761Y-90805000D01*
X108149375Y-91004375D01*
X107821161Y-91495582D01*
X107705908Y-92075000D01*
X107821161Y-92654418D01*
X108149375Y-93145625D01*
X108640582Y-93473839D01*
X109073744Y-93560000D01*
X109366256Y-93560000D01*
X109799418Y-93473839D01*
X110290625Y-93145625D01*
X110302816Y-93127381D01*
X110311843Y-93172765D01*
X110452191Y-93382809D01*
X110662235Y-93523157D01*
X110910000Y-93572440D01*
X112610000Y-93572440D01*
X112857765Y-93523157D01*
X113067809Y-93382809D01*
X113208157Y-93172765D01*
X113257440Y-92925000D01*
X113257440Y-92213308D01*
X114100000Y-93055868D01*
X114100000Y-93186279D01*
X114057569Y-93228710D01*
X113900000Y-93609116D01*
X113900000Y-94020864D01*
X114057569Y-94401270D01*
X114348720Y-94692421D01*
X114729126Y-94849990D01*
X115140874Y-94849990D01*
X115521280Y-94692421D01*
X115812431Y-94401270D01*
X115865275Y-94273691D01*
X130595000Y-94273691D01*
X130595000Y-94964250D01*
X130753750Y-95123000D01*
X131953000Y-95123000D01*
X131953000Y-93923750D01*
X132207000Y-93923750D01*
X132207000Y-95123000D01*
X133406250Y-95123000D01*
X133565000Y-94964250D01*
X133565000Y-94273691D01*
X133468327Y-94040302D01*
X133289699Y-93861673D01*
X133056310Y-93765000D01*
X132365750Y-93765000D01*
X132207000Y-93923750D01*
X131953000Y-93923750D01*
X131794250Y-93765000D01*
X131103690Y-93765000D01*
X130870301Y-93861673D01*
X130691673Y-94040302D01*
X130595000Y-94273691D01*
X115865275Y-94273691D01*
X115970000Y-94020864D01*
X115970000Y-93609116D01*
X115812431Y-93228710D01*
X115770000Y-93186279D01*
X115770000Y-92792232D01*
X115786357Y-92709999D01*
X115770000Y-92627764D01*
X115770000Y-92627763D01*
X115721552Y-92384199D01*
X115537001Y-92107999D01*
X115467283Y-92061415D01*
X113995868Y-90590000D01*
X130582560Y-90590000D01*
X130582560Y-92290000D01*
X130631843Y-92537765D01*
X130772191Y-92747809D01*
X130982235Y-92888157D01*
X131230000Y-92937440D01*
X132930000Y-92937440D01*
X133177765Y-92888157D01*
X133387809Y-92747809D01*
X133528157Y-92537765D01*
X133577440Y-92290000D01*
X133577440Y-90590000D01*
X133528157Y-90342235D01*
X133387809Y-90132191D01*
X133177765Y-89991843D01*
X132930000Y-89942560D01*
X131230000Y-89942560D01*
X130982235Y-89991843D01*
X130772191Y-90132191D01*
X130631843Y-90342235D01*
X130582560Y-90590000D01*
X113995868Y-90590000D01*
X113218807Y-89812939D01*
X113274092Y-89535000D01*
X113158839Y-88955582D01*
X112830625Y-88464375D01*
X112532239Y-88265000D01*
X112830625Y-88065625D01*
X113158839Y-87574418D01*
X113274092Y-86995000D01*
X113231326Y-86780000D01*
X130582560Y-86780000D01*
X130582560Y-88480000D01*
X130631843Y-88727765D01*
X130772191Y-88937809D01*
X130982235Y-89078157D01*
X131230000Y-89127440D01*
X132930000Y-89127440D01*
X133177765Y-89078157D01*
X133387809Y-88937809D01*
X133528157Y-88727765D01*
X133577440Y-88480000D01*
X133577440Y-86780000D01*
X133528157Y-86532235D01*
X133387809Y-86322191D01*
X133177765Y-86181843D01*
X132930000Y-86132560D01*
X131230000Y-86132560D01*
X130982235Y-86181843D01*
X130772191Y-86322191D01*
X130631843Y-86532235D01*
X130582560Y-86780000D01*
X113231326Y-86780000D01*
X113158839Y-86415582D01*
X112830625Y-85924375D01*
X112339418Y-85596161D01*
X111906256Y-85510000D01*
X111613744Y-85510000D01*
X111180582Y-85596161D01*
X110689375Y-85924375D01*
X110488647Y-86224786D01*
X110101358Y-85799817D01*
X109576892Y-85553514D01*
X109347000Y-85674181D01*
X109347000Y-86868000D01*
X109367000Y-86868000D01*
X109367000Y-87122000D01*
X109347000Y-87122000D01*
X109347000Y-87142000D01*
X109093000Y-87142000D01*
X109093000Y-87122000D01*
X107899845Y-87122000D01*
X107778524Y-87351890D01*
X107948355Y-87761924D01*
X108338642Y-88190183D01*
X108468478Y-88251157D01*
X108149375Y-88464375D01*
X107821161Y-88955582D01*
X107705908Y-89535000D01*
X107415000Y-89535000D01*
X107415000Y-86638110D01*
X107778524Y-86638110D01*
X107899845Y-86868000D01*
X109093000Y-86868000D01*
X109093000Y-85674181D01*
X108863108Y-85553514D01*
X108338642Y-85799817D01*
X107948355Y-86228076D01*
X107778524Y-86638110D01*
X107415000Y-86638110D01*
X107415000Y-82650000D01*
X130680109Y-82650000D01*
X130631843Y-82722235D01*
X130631843Y-82722235D01*
G37*
X130631843Y-82722235D02*
X130582560Y-82970000D01*
X130582560Y-84670000D01*
X130631843Y-84917765D01*
X130772191Y-85127809D01*
X130982235Y-85268157D01*
X131230000Y-85317440D01*
X132930000Y-85317440D01*
X133177765Y-85268157D01*
X133387809Y-85127809D01*
X133528157Y-84917765D01*
X133577440Y-84670000D01*
X133577440Y-82970000D01*
X133528157Y-82722235D01*
X133479891Y-82650000D01*
X134520001Y-82650000D01*
X134520000Y-96420000D01*
X133484770Y-96420000D01*
X133565000Y-96226309D01*
X133565000Y-95535750D01*
X133406250Y-95377000D01*
X132207000Y-95377000D01*
X132207000Y-95397000D01*
X131953000Y-95397000D01*
X131953000Y-95377000D01*
X130753750Y-95377000D01*
X130595000Y-95535750D01*
X130595000Y-96226309D01*
X130675230Y-96420000D01*
X107415000Y-96420000D01*
X107415000Y-89535000D01*
X107705908Y-89535000D01*
X107821161Y-90114418D01*
X108149375Y-90605625D01*
X108447761Y-90805000D01*
X108149375Y-91004375D01*
X107821161Y-91495582D01*
X107705908Y-92075000D01*
X107821161Y-92654418D01*
X108149375Y-93145625D01*
X108640582Y-93473839D01*
X109073744Y-93560000D01*
X109366256Y-93560000D01*
X109799418Y-93473839D01*
X110290625Y-93145625D01*
X110302816Y-93127381D01*
X110311843Y-93172765D01*
X110452191Y-93382809D01*
X110662235Y-93523157D01*
X110910000Y-93572440D01*
X112610000Y-93572440D01*
X112857765Y-93523157D01*
X113067809Y-93382809D01*
X113208157Y-93172765D01*
X113257440Y-92925000D01*
X113257440Y-92213308D01*
X114100000Y-93055868D01*
X114100000Y-93186279D01*
X114057569Y-93228710D01*
X113900000Y-93609116D01*
X113900000Y-94020864D01*
X114057569Y-94401270D01*
X114348720Y-94692421D01*
X114729126Y-94849990D01*
X115140874Y-94849990D01*
X115521280Y-94692421D01*
X115812431Y-94401270D01*
X115865275Y-94273691D01*
X130595000Y-94273691D01*
X130595000Y-94964250D01*
X130753750Y-95123000D01*
X131953000Y-95123000D01*
X131953000Y-93923750D01*
X132207000Y-93923750D01*
X132207000Y-95123000D01*
X133406250Y-95123000D01*
X133565000Y-94964250D01*
X133565000Y-94273691D01*
X133468327Y-94040302D01*
X133289699Y-93861673D01*
X133056310Y-93765000D01*
X132365750Y-93765000D01*
X132207000Y-93923750D01*
X131953000Y-93923750D01*
X131794250Y-93765000D01*
X131103690Y-93765000D01*
X130870301Y-93861673D01*
X130691673Y-94040302D01*
X130595000Y-94273691D01*
X115865275Y-94273691D01*
X115970000Y-94020864D01*
X115970000Y-93609116D01*
X115812431Y-93228710D01*
X115770000Y-93186279D01*
X115770000Y-92792232D01*
X115786357Y-92709999D01*
X115770000Y-92627764D01*
X115770000Y-92627763D01*
X115721552Y-92384199D01*
X115537001Y-92107999D01*
X115467283Y-92061415D01*
X113995868Y-90590000D01*
X130582560Y-90590000D01*
X130582560Y-92290000D01*
X130631843Y-92537765D01*
X130772191Y-92747809D01*
X130982235Y-92888157D01*
X131230000Y-92937440D01*
X132930000Y-92937440D01*
X133177765Y-92888157D01*
X133387809Y-92747809D01*
X133528157Y-92537765D01*
X133577440Y-92290000D01*
X133577440Y-90590000D01*
X133528157Y-90342235D01*
X133387809Y-90132191D01*
X133177765Y-89991843D01*
X132930000Y-89942560D01*
X131230000Y-89942560D01*
X130982235Y-89991843D01*
X130772191Y-90132191D01*
X130631843Y-90342235D01*
X130582560Y-90590000D01*
X113995868Y-90590000D01*
X113218807Y-89812939D01*
X113274092Y-89535000D01*
X113158839Y-88955582D01*
X112830625Y-88464375D01*
X112532239Y-88265000D01*
X112830625Y-88065625D01*
X113158839Y-87574418D01*
X113274092Y-86995000D01*
X113231326Y-86780000D01*
X130582560Y-86780000D01*
X130582560Y-88480000D01*
X130631843Y-88727765D01*
X130772191Y-88937809D01*
X130982235Y-89078157D01*
X131230000Y-89127440D01*
X132930000Y-89127440D01*
X133177765Y-89078157D01*
X133387809Y-88937809D01*
X133528157Y-88727765D01*
X133577440Y-88480000D01*
X133577440Y-86780000D01*
X133528157Y-86532235D01*
X133387809Y-86322191D01*
X133177765Y-86181843D01*
X132930000Y-86132560D01*
X131230000Y-86132560D01*
X130982235Y-86181843D01*
X130772191Y-86322191D01*
X130631843Y-86532235D01*
X130582560Y-86780000D01*
X113231326Y-86780000D01*
X113158839Y-86415582D01*
X112830625Y-85924375D01*
X112339418Y-85596161D01*
X111906256Y-85510000D01*
X111613744Y-85510000D01*
X111180582Y-85596161D01*
X110689375Y-85924375D01*
X110488647Y-86224786D01*
X110101358Y-85799817D01*
X109576892Y-85553514D01*
X109347000Y-85674181D01*
X109347000Y-86868000D01*
X109367000Y-86868000D01*
X109367000Y-87122000D01*
X109347000Y-87122000D01*
X109347000Y-87142000D01*
X109093000Y-87142000D01*
X109093000Y-87122000D01*
X107899845Y-87122000D01*
X107778524Y-87351890D01*
X107948355Y-87761924D01*
X108338642Y-88190183D01*
X108468478Y-88251157D01*
X108149375Y-88464375D01*
X107821161Y-88955582D01*
X107705908Y-89535000D01*
X107415000Y-89535000D01*
X107415000Y-86638110D01*
X107778524Y-86638110D01*
X107899845Y-86868000D01*
X109093000Y-86868000D01*
X109093000Y-85674181D01*
X108863108Y-85553514D01*
X108338642Y-85799817D01*
X107948355Y-86228076D01*
X107778524Y-86638110D01*
X107415000Y-86638110D01*
X107415000Y-82650000D01*
X130680109Y-82650000D01*
X130631843Y-82722235D01*
G04 #@! TD*
M02*
